<svg id="SvgjsSvg1001" width="288" height="288" xmlns="http://www.w3.org/2000/svg" version="1.1" xmlns:xlink="http://www.w3.org/1999/xlink" xmlns:svgjs="http://svgjs.com/svgjs"><defs id="SvgjsDefs1002"></defs><g id="SvgjsG1008" transform="matrix(1,0,0,1,0,0)"><svg xmlns="http://www.w3.org/2000/svg" viewBox="0 0 256 256" width="288" height="288"><path d="M208.48535,64.48535l-144,144a12.0001,12.0001,0,0,1-16.9707-16.9707l144-144a12.0001,12.0001,0,0,1,16.9707,16.9707ZM60,112a12,12,0,0,0,24,0V84h28a12,12,0,0,0,0-24H84V32a12,12,0,0,0-24,0V60H32a12,12,0,0,0,0,24H60Zm164,60H144a12,12,0,0,0,0,24h80a12,12,0,0,0,0-24Z" fill="#ffffff" class="color000 svgShape"></path></svg></g></svg>