<?xml version="1.0" encoding="utf-8"?>
<svg viewBox="-0.045 0 399.287 169.221" xmlns="http://www.w3.org/2000/svg">
  <path d="M 102.911 113.011 L 102.911 148.574 C 102.911 148.574 109.027 148.574 114.46 148.574 C 119.233 148.574 146.519 148.71 146.523 148.658 L 146.531 168.003 C 146.46 168.012 134.123 168.006 117.291 168.006 C 109.471 168.006 117.76 168.006 110.87 168.006 C 104.144 168.006 82.145 139.133 82.145 139.133 L 82.145 70.843 L 90.444 55.944 C 90.444 55.944 108.436 41.902 111.129 41.902 C 119.648 41.902 113.311 41.972 117.475 41.972 C 132.727 41.972 146.383 42.025 146.388 41.914 L 146.225 61.319 C 146.133 61.336 118.877 61.415 114.177 61.415 C 108.744 61.415 102.911 61.415 102.911 61.415 L 102.911 93.522 C 102.911 93.522 112.876 93.634 123.274 93.735 L 123.274 112.986 C 112.88 113.004 102.911 113.011 102.911 113.011 Z" id="path7" style="fill:#FFFFFF"/>
  <path d="M 185.772 30.604 C 185.772 21.127 194.473 19.903 199.28 19.903 C 204.088 19.903 212.756 21.103 212.756 30.604 L 212.748 93.547 L 185.758 93.547 L 185.772 30.604 M 199.28 0 C 190.503 0 165.035 1.99 165.035 27.474 L 165.035 168.048 L 185.798 168.048 L 185.798 113.046 L 212.758 113.046 L 212.751 168.025 L 233.531 168.025 L 233.531 27.474 C 233.531 1.943 208.031 0 199.28 0 Z" id="path11" style="fill:#FFFFFF"/>
  <g transform="matrix(1, 0, 0, 1, 1.646508, 0)">
    <path d="M 295.772 131.455 L 295.724 141.186 C 295.724 146.235 291.549 149.608 285.347 149.608 C 279.117 149.608 275.019 146.229 275.019 141.186 L 275.003 68.823 L 254.591 67.291 L 254.241 144.5 C 254.241 164.017 274.305 169.221 285.369 169.221 C 296.333 169.221 316.484 163.99 316.484 144.477 L 316.484 131.455 L 295.724 131.455" id="path13" style="fill:#FFFFFF"/>
    <path d="M 295.769 41.913 L 295.769 141.128 C 295.769 146.177 291.594 149.55 285.392 149.55 C 279.162 149.55 275.064 146.171 275.064 141.128 L 275.048 132.527 L 254.291 132.553 L 254.286 144.442 C 254.286 163.959 274.35 169.163 285.414 169.163 C 296.378 169.163 316.529 163.932 316.529 144.419 L 316.692 79.586 L 296.006 79.201" id="path-1" style="fill:#FFFFFF" transform="matrix(-1, 0, 0, -1, 570.977982, 211.075996)"/>
  </g>
  <path d="M 20.722 60.982 C 20.722 60.982 26.551 60.982 31.988 60.982 C 37.804 60.982 42.495 65.262 42.495 77.052 C 42.495 88.967 37.071 93.089 31.988 93.089 C 26.37 93.089 20.722 93.089 20.722 93.089 L 20.722 60.982 M 63.052 125.393 C 63.052 109.687 58.177 105.275 51.541 101.49 L 51.541 101.392 C 56.12 98.179 63.375 92.651 63.375 74.887 C 63.375 51.935 51.464 41.539 35.286 41.539 C 29.802 41.539 -0.045 41.539 -0.045 41.539 L -0.045 167.573 L 20.708 167.573 L 20.721 112.578 C 20.721 112.578 26.369 112.578 31.984 112.578 C 37.891 112.578 42.113 117.486 42.113 128.625 L 42.113 167.573 L 63.041 167.573 L 63.052 125.393 Z" id="path-2" style="fill:#FFFFFF"/>
  <path d="M 378.726 167.997 L 357.97 167.997 L 357.964 49.668 L 378.726 49.668 L 378.726 167.997 Z" id="path-3" style="fill:#FFFFFF"/>
  <path d="M 355.765 61.448 L 337.097 61.248 L 337.097 41.964 C 337.097 41.964 364.849 42.005 370.329 42.005 C 385.581 42.005 399.237 42.058 399.242 41.947 L 399.079 61.352 C 398.987 61.369 371.731 61.448 367.031 61.448 C 361.598 61.448 355.765 61.448 355.765 61.448 Z" id="path-4" style="fill:#FFFFFF"/>
  <g transform="matrix(1, 0, 0, 1, -172.853348, 0.117734)">
    <path d="M 286.074 148.477 C 279.844 148.477 275.746 145.098 275.746 140.055 L 275.003 68.823 L 254.591 67.291 L 255.009 143.259 C 255.009 162.776 275.073 167.98 286.137 167.98" id="path-5" style="fill:#FFFFFF"/>
    <path d="M 296.046 50.242 L 295.163 141.284 C 295.163 146.333 290.988 149.706 284.786 149.706 C 278.556 149.706 253.34 152.27 253.34 152.27 C 253.34 171.787 274.35 169.163 285.414 169.163 C 296.378 169.163 316.529 163.932 316.529 144.419 L 315.907 68.392 L 296.006 79.201" id="path-6" style="fill:#FFFFFF" transform="matrix(-1, 0, 0, -1, 570.977982, 211.075996)"/>
  </g>
</svg>